<svg id="레이어_1" data-name="레이어 1" xmlns="http://www.w3.org/2000/svg" viewBox="0 0 512 512"><defs><style>.cls-1{fill:none;opacity:0;}</style></defs><rect class="cls-1" width="512" height="512"/><path d="M20.74,255.74c-.1,41.42,13.78,77.42,43.22,106.47,29.95,29.56,66.78,44.05,108.85,42.52,35.32-1.29,66.59-14.25,92.65-38.55,3.93-3.67,6.28-4.26,10.3-.13,9.69,10,9.68,10.13-1.2,19.11-24.6,20.29-52.47,33.52-84.09,37.63-56.22,7.32-104.82-8.64-144.55-49.64C18.42,344.78,3.78,310.64.66,271.32-3.28,221.81,10.37,178,43.61,141c29.93-33.35,67.74-50.56,112.52-53.18,41.8-2.45,79.07,9.16,112.33,34.25,4,3,7.63,6.29,11.47,9.41,4.07,3.31,4.61,6.41.61,10.54-8.4,8.7-8.32,9-17.45,1.22C236.42,120.6,205.51,108,170.72,107c-35.82-1-68.34,10-96.21,33C38.24,170,20.68,208.81,20.74,255.74Z" transform="translate(0)"/><path d="M166.62,198.45c30.38,0,50.55,19.44,52.29,50.47.79,14.06-.48,27.71-7.25,40.51-13.06,24.7-42.1,30.65-64.13,24.17C131,308.74,120,298,114.29,281.74c-5.38-15.21-5.26-30.5-.91-45.82C120.3,211.58,139.13,198.43,166.62,198.45Z" transform="translate(0)"/><path d="M499.91,306.54c5.38,11.22,2.5,19.37-7.28,25-18.58,10.6-38.79,12.12-59,9.47-26.07-3.41-43.31-19.26-51.11-44.06-8.12-25.87-8.79-52.21,2.51-77.44,21.35-47.71,76.15-52.6,103.79-28.4,13.92,12.18,19.33,28.6,21.72,46.28.73,5.35,1.11,10.77,1.39,16.17.5,9.3-.4,10.22-9.6,10.23q-46.34,0-92.66,0c-11.29,0-11.95.95-9.9,12.41,2.64,14.75,7.37,28.59,20.1,37.65,20.06,14.27,41.3,11.79,62.45,2.61C488.42,313.76,494,309.87,499.91,306.54Zm-99.43-62.7c.61.48.8.75,1,.75,27.55.16,55.09.39,82.63.21,1.68,0,4.8-3.41,4.77-5.18-.3-16.29-9.93-37.54-29.94-42.41C430.08,190.2,403.44,210.75,400.48,243.84Z" transform="translate(0)"/><path d="M304,207.92c5.22-6.92,9.19-13.33,14.28-18.7,10.42-11,24-12.3,37.95-9.9,2.24.39,5.1,4,5.55,6.55.88,4.9.26,10.07.26,14.75-7.89-1.13-14.62-3.31-21.14-2.78C326.48,199,316.76,208.15,312.3,221c-4.18,12.07-7.27,25-7.94,37.7-1.25,23.5-.36,47.1-.41,70.66,0,9.05-.39,9.33-10.56,9.33s-10.77-.31-10.78-9.11q0-69.62,0-139.23c0-8.72.5-9,10.86-9,10.1,0,10.42.28,10.49,9.4C304,196.13,304,201.53,304,207.92Z" transform="translate(0)"/></svg>