<?xml version="1.0" encoding="utf-8"?>
<!-- Generator: Adobe Illustrator 25.3.1, SVG Export Plug-In . SVG Version: 6.00 Build 0)  -->
<svg version="1.1" id="레이어_1" xmlns="http://www.w3.org/2000/svg" xmlns:xlink="http://www.w3.org/1999/xlink" x="0px"
	 y="0px" viewBox="0 0 24 24" style="enable-background:new 0 0 24 24;" xml:space="preserve">
<style type="text/css">
	.st0{opacity:0;fill:none;}
</style>
<rect class="st0" width="24" height="24"/>
<path d="M21.7,0.5c-1-0.9-2.3-0.6-3.5,0.5c-0.2,0.2-0.4,0.3-0.5,0.5c-2.1,2.2-4.1,6.4-4.7,9.5c0.2,0.5,0.4,1.1,0.5,1.6
	c0.1,0.2,0.1,0.5,0.2,0.7c0,0,0-0.1-0.1-0.3L13.5,13c0,0,0-0.1,0-0.1c-0.1-0.3-0.5-1-0.7-1.3c-0.1,0.4-0.3,0.8-0.4,1.2
	c0.5,0.9,0.8,2.4,0.8,2.4s0-0.1-0.1-0.4c-0.1-0.3-0.6-1.2-0.8-1.5c-0.2,0.8-0.3,1.3-0.2,1.5c0.2,0.3,0.3,0.7,0.4,1.2
	c0.3,1.1,0.5,2.4,0.5,2.4l0,0.2c0,0.9,0,1.8,0.1,2.7c0.1,1.1,0.3,2.1,0.5,2.7l0.2-0.1c-0.3-1-0.5-2.4-0.4-4c0.1-2.4,0.6-5.3,1.7-8.3
	c1.7-4.6,4.1-8.2,6.3-9.9c-2,1.8-4.7,7.6-5.5,9.8c-0.9,2.4-1.5,4.7-1.9,6.9c0.7-2,2.8-2.9,2.8-2.9s1.1-1.3,2.3-3.2
	c-0.7,0.2-2,0.5-2.4,0.6c-0.6,0.3-0.8,0.3-0.8,0.3s1.9-1.2,3.6-1.7C21.7,7.9,24.2,2.8,21.7,0.5 M3.1,1.1c-1,0-1.8,0.8-1.8,1.8v16.6
	c0,1,0.8,1.8,1.8,1.8h9.4c-0.1-0.9-0.1-1.8-0.1-2.7c0-0.1,0-0.1,0-0.2c-0.1-0.8-0.3-1.6-0.5-2.4c-0.1-0.5-0.3-0.9-0.4-1.1
	c-0.1-0.2-0.1-0.3-0.1-0.4c0-0.1,0-0.2,0-0.4c0.1-0.4,0.1-0.7,0.2-1l0.2,0c0,0,0-0.1,0-0.1l0-0.4c0.1-0.4,0.2-0.8,0.4-1.2l0.2,0
	c0,0,0,0,0-0.1l0-0.3c0.6-3.3,2.6-7.4,4.8-9.8c0.1-0.1,0.1-0.1,0.2-0.2L3.1,1.1z"/>
</svg>
