<?xml version="1.0" encoding="utf-8"?>
<!-- Generator: Adobe Illustrator 25.3.1, SVG Export Plug-In . SVG Version: 6.00 Build 0)  -->
<svg version="1.1" id="레이어_1" xmlns="http://www.w3.org/2000/svg" xmlns:xlink="http://www.w3.org/1999/xlink" x="0px"
	 y="0px" viewBox="0 0 200 200" style="enable-background:new 0 0 200 200;" xml:space="preserve">
<g transform="translate(0.000000,200.000000) scale(0.100000,-0.100000)">
	<path d="M294.2,1985.6c-65.8-21.5-126.5-74.7-148.4-126.3c-16.8-41.6-23.2-120.6-28.4-379c-7.7-318.7-9-325.9-38.7-361.8
		c-16.8-20.1-41.3-40.2-55.5-45.9C5.2,1066.8,0,1051,0,1003.6c0-56,3.9-64.6,37.4-80.4c67.1-30.2,77.4-79,78.7-386.2
		c1.3-196.7,7.7-297.2,20.6-347.5C167.7,73.2,240,18.7,376.8,7.2L461.9,0v66v64.6l-58.1,10.1c-82.6,12.9-92.9,20.1-116.1,68.9
		c-16.8,35.9-20.6,101.9-23.2,340.3c-2.6,325.9-7.7,353.2-86.5,422.1c-23.2,20.1-36.1,37.3-28.4,37.3c20.6,0,83.9,73.2,98.1,114.9
		c7.7,20.1,15.5,168,16.8,330.2c3.9,367.6,9,383.3,130.3,409.2c12.9,2.9,34.8,5.7,46.5,5.7c16.8,1.4,20.6,15.8,20.6,66v64.6
		l-65.8-1.4C358.7,1998.6,313.5,1992.8,294.2,1985.6z"/>
	<path d="M1548.4,1936.8v-63.2l58.1-10.1c32.3-4.3,74.8-24.4,94.2-43.1l34.8-33l3.9-300.1c3.9-333.1,15.5-396.3,82.6-453.7
		l38.7-34.5l-33.5-23c-74.8-54.6-78.7-74.7-85.2-430.7l-6.5-328.8l-34.8-33c-19.4-18.7-61.9-38.8-94.2-43.1l-58.1-10.1V67.5V4.3
		h63.2c74.8,0,135.5,21.5,191,67.5c67.1,54.6,81.3,135,81.3,453.7c0,301.5,10.3,351.8,78.7,392c32.3,18.7,37.4,28.7,37.4,84.7
		c0,48.8-5.2,64.6-23.2,70.4c-14.2,5.7-38.7,25.8-55.5,45.9c-31,35.9-31,43.1-38.7,361.8c-7.7,357.5-15.5,404.9-83.9,458
		c-46.5,37.3-123.9,61.7-194.8,61.7h-55.5V1936.8z"/>
	<path d="M634.8,1710c-21.9-24.4-21.9-615.9,0-640.3c21.9-24.4,463.2-24.4,485.2,0c21.9,24.4,21.9,615.9,0,640.3
		C1098.1,1734.4,656.8,1734.4,634.8,1710z M1103.2,1389.8v-301.5H877.4H651.6l-3.9,287.2c-1.3,157.9,0,294.3,3.9,304.4
		c3.9,15.8,55.5,18.7,228.4,15.8l223.2-4.3V1389.8z"/>
	<path d="M696.8,1598c0-8.6,68.4-14.4,180.6-14.4s180.6,5.7,180.6,14.4s-68.4,14.4-180.6,14.4S696.8,1606.6,696.8,1598z"/>
	<path d="M696.8,1468.8c0-7.2,6.5-14.4,12.9-14.4c7.7,0,12.9,7.2,12.9,14.4c0,8.6-5.2,14.4-12.9,14.4
		C703.2,1483.1,696.8,1477.4,696.8,1468.8z"/>
	<path d="M735.5,1468.8c0-8.6,61.9-14.4,161.3-14.4s161.3,5.7,161.3,14.4s-61.9,14.4-161.3,14.4S735.5,1477.4,735.5,1468.8z"/>
	<path d="M696.8,1325.2c0-7.2,6.5-14.4,12.9-14.4c7.7,0,12.9,7.2,12.9,14.4c0,8.6-5.2,14.4-12.9,14.4
		C703.2,1339.6,696.8,1333.8,696.8,1325.2z"/>
	<path d="M735.5,1325.2c0-8.6,61.9-14.4,161.3-14.4s161.3,5.7,161.3,14.4s-61.9,14.4-161.3,14.4S735.5,1333.8,735.5,1325.2z"/>
	<path d="M696.8,1181.6c0-7.2,6.5-14.4,12.9-14.4c7.7,0,12.9,7.2,12.9,14.4c0,8.6-5.2,14.4-12.9,14.4
		C703.2,1196,696.8,1190.2,696.8,1181.6z"/>
	<path d="M735.5,1181.6c0-8.6,61.9-14.4,161.3-14.4s161.3,5.7,161.3,14.4s-61.9,14.4-161.3,14.4S735.5,1190.2,735.5,1181.6z"/>
	<path d="M1200,1382.6c0-8.6,34.8-14.4,77.4-14.4h77.4V995V621.7h-77.4c-42.6,0-77.4-5.7-77.4-14.4s38.7-14.4,90.3-14.4h90.3v402
		v402h-90.3C1238.7,1397,1200,1391.2,1200,1382.6z"/>
	<path d="M634.8,934.7c-21.9-24.4-21.9-615.9,0-640.3c21.9-24.4,463.2-24.4,485.2,0c21.9,24.4,21.9,615.9,0,640.3
		C1098.1,959.1,656.8,959.1,634.8,934.7z M1103.2,614.5V313H877.4H651.6l-3.9,287.2c-1.3,157.9,0,294.3,3.9,304.4
		c3.9,15.8,55.5,18.7,228.4,15.8l223.2-4.3V614.5z"/>
	<path d="M696.8,822.7c0-8.6,68.4-14.4,180.6-14.4s180.6,5.7,180.6,14.4S989.7,837,877.4,837S696.8,831.3,696.8,822.7z"/>
	<path d="M696.8,693.5c0-7.2,6.5-14.4,12.9-14.4c7.7,0,12.9,7.2,12.9,14.4c0,8.6-5.2,14.4-12.9,14.4
		C703.2,707.8,696.8,702.1,696.8,693.5z"/>
	<path d="M735.5,693.5c0-8.6,61.9-14.4,161.3-14.4s161.3,5.7,161.3,14.4s-61.9,14.4-161.3,14.4S735.5,702.1,735.5,693.5z"/>
	<path d="M696.8,549.9c0-7.2,6.5-14.4,12.9-14.4c7.7,0,12.9,7.2,12.9,14.4c0,8.6-5.2,14.4-12.9,14.4
		C703.2,564.2,696.8,558.5,696.8,549.9z"/>
	<path d="M735.5,549.9c0-8.6,61.9-14.4,161.3-14.4s161.3,5.7,161.3,14.4s-61.9,14.4-161.3,14.4S735.5,558.5,735.5,549.9z"/>
	<path d="M696.8,406.3c0-7.2,6.5-14.4,12.9-14.4c7.7,0,12.9,7.2,12.9,14.4c0,8.6-5.2,14.4-12.9,14.4
		C703.2,420.7,696.8,414.9,696.8,406.3z"/>
	<path d="M735.5,406.3c0-8.6,61.9-14.4,161.3-14.4s161.3,5.7,161.3,14.4s-61.9,14.4-161.3,14.4S735.5,414.9,735.5,406.3z"/>
</g>
</svg>
