<?xml version="1.0" encoding="utf-8"?>
<!-- Generator: Adobe Illustrator 25.3.1, SVG Export Plug-In . SVG Version: 6.00 Build 0)  -->
<svg version="1.1" id="레이어_1" xmlns="http://www.w3.org/2000/svg" xmlns:xlink="http://www.w3.org/1999/xlink" x="0px"
	 y="0px" viewBox="0 0 512 512" style="enable-background:new 0 0 512 512;" xml:space="preserve">
<style type="text/css">
	.st0{opacity:0;fill:none;}
</style>
<rect y="0" class="st0" width="512" height="512"/>
<path d="M177.3,198.7c-19.3,16.5-33.7,32.2-41.3,52.7c-6.7,18-11.8,36.6-17.5,54.9c-10,32-32.2,49.3-65.1,52.4
	c-14.5,1.4-29.3,0.4-43.9,0.4c-7.6,0-11.1-2.7-8.7-11c18.9-63.3,43.6-123.4,93.3-169.8c16.2-15.1,34.4-23.3,56.9-22.7
	c23.3,0.7,46.7,0.3,70.1,0c52.1-0.8,63.8,8.3,82.8,61.8c8.9,24.9,13.8,51.2,20.5,76.9c1.3,4.8,2.8,9.5,5.4,18c3-6.6,5-9.8,6.1-13.3
	c9.3-29.2,18.9-58.3,27.6-87.7c12-40.6,34.6-58.3,76.9-58.5c22.7-0.2,45.4,0,71.6,0c-5.8,11.3-9.2,19-13.5,26.2
	c-26.2,44-52.2,88.1-79.4,131.5c-7.3,11.7-16.9,21.7-28.2,29.6c-10.4,7-23.8,12.5-36.1,13.2c-30.1,1.9-60.5-0.3-90.6,0.9
	c-24.1,0.9-40.5-10.3-48.9-30.5c-10.4-24.7-17.5-50.9-25.4-76.6C185.4,232.2,182.1,217.1,177.3,198.7z"/>
</svg>
